<mxfile host="app.diagrams.net" modified="2024-05-26T03:51:52.253Z" agent="Mozilla/5.0 (Windows NT 10.0; Win64; x64) AppleWebKit/537.36 (KHTML, like Gecko) Chrome/125.0.0.0 Safari/537.36" etag="vIoPJYCaQ0YfPopEhF5s" version="21.3.7" type="device">
  <diagram id="C5RBs43oDa-KdzZeNtuy" name="Page-1">
    <mxGraphModel dx="3452" dy="1305" grid="1" gridSize="10" guides="1" tooltips="1" connect="1" arrows="1" fold="1" page="1" pageScale="1" pageWidth="827" pageHeight="1169" math="0" shadow="0">
      <root>
        <mxCell id="WIyWlLk6GJQsqaUBKTNV-0" />
        <mxCell id="WIyWlLk6GJQsqaUBKTNV-1" parent="WIyWlLk6GJQsqaUBKTNV-0" />
        <mxCell id="WIyWlLk6GJQsqaUBKTNV-10" value="Ofrece" style="rhombus;whiteSpace=wrap;html=1;shadow=0;fontFamily=Helvetica;fontSize=12;align=center;strokeWidth=1;spacing=6;spacingTop=-4;" parent="WIyWlLk6GJQsqaUBKTNV-1" vertex="1">
          <mxGeometry x="130" y="240" width="100" height="80" as="geometry" />
        </mxCell>
        <mxCell id="P7yukmsBVSewSL0_P7Qi-2" value="Restaurant" style="rounded=0;whiteSpace=wrap;html=1;" parent="WIyWlLk6GJQsqaUBKTNV-1" vertex="1">
          <mxGeometry x="120" y="140" width="120" height="60" as="geometry" />
        </mxCell>
        <mxCell id="P7yukmsBVSewSL0_P7Qi-3" value="&lt;u&gt;id_restaurant&lt;/u&gt;" style="ellipse;whiteSpace=wrap;html=1;" parent="WIyWlLk6GJQsqaUBKTNV-1" vertex="1">
          <mxGeometry x="20" y="50" width="80" height="50" as="geometry" />
        </mxCell>
        <mxCell id="P7yukmsBVSewSL0_P7Qi-7" value="" style="endArrow=none;html=1;rounded=0;entryX=0.938;entryY=0.82;entryDx=0;entryDy=0;entryPerimeter=0;exitX=0;exitY=0;exitDx=0;exitDy=0;" parent="WIyWlLk6GJQsqaUBKTNV-1" source="P7yukmsBVSewSL0_P7Qi-2" target="P7yukmsBVSewSL0_P7Qi-3" edge="1">
          <mxGeometry width="50" height="50" relative="1" as="geometry">
            <mxPoint x="110" y="140" as="sourcePoint" />
            <mxPoint x="160" y="90" as="targetPoint" />
          </mxGeometry>
        </mxCell>
        <mxCell id="P7yukmsBVSewSL0_P7Qi-8" value="Nombre" style="ellipse;whiteSpace=wrap;html=1;" parent="WIyWlLk6GJQsqaUBKTNV-1" vertex="1">
          <mxGeometry x="-70" y="90" width="80" height="50" as="geometry" />
        </mxCell>
        <mxCell id="P7yukmsBVSewSL0_P7Qi-13" value="Platos" style="rounded=0;whiteSpace=wrap;html=1;" parent="WIyWlLk6GJQsqaUBKTNV-1" vertex="1">
          <mxGeometry x="120" y="360" width="120" height="60" as="geometry" />
        </mxCell>
        <mxCell id="P7yukmsBVSewSL0_P7Qi-14" value="Tienen" style="rhombus;whiteSpace=wrap;html=1;shadow=0;fontFamily=Helvetica;fontSize=12;align=center;strokeWidth=1;spacing=6;spacingTop=-4;" parent="WIyWlLk6GJQsqaUBKTNV-1" vertex="1">
          <mxGeometry x="130" y="490" width="100" height="80" as="geometry" />
        </mxCell>
        <mxCell id="P7yukmsBVSewSL0_P7Qi-16" value="Registro Pedido" style="rounded=0;whiteSpace=wrap;html=1;" parent="WIyWlLk6GJQsqaUBKTNV-1" vertex="1">
          <mxGeometry x="120" y="640" width="120" height="60" as="geometry" />
        </mxCell>
        <mxCell id="P7yukmsBVSewSL0_P7Qi-17" value="&amp;nbsp;Pedido" style="rounded=0;whiteSpace=wrap;html=1;" parent="WIyWlLk6GJQsqaUBKTNV-1" vertex="1">
          <mxGeometry x="110" y="890" width="120" height="60" as="geometry" />
        </mxCell>
        <mxCell id="P7yukmsBVSewSL0_P7Qi-18" value="Despachador" style="rounded=0;whiteSpace=wrap;html=1;" parent="WIyWlLk6GJQsqaUBKTNV-1" vertex="1">
          <mxGeometry x="480" y="299.62" width="120" height="60" as="geometry" />
        </mxCell>
        <mxCell id="P7yukmsBVSewSL0_P7Qi-19" value="Cliente" style="rounded=0;whiteSpace=wrap;html=1;" parent="WIyWlLk6GJQsqaUBKTNV-1" vertex="1">
          <mxGeometry x="460" y="945" width="120" height="60" as="geometry" />
        </mxCell>
        <mxCell id="P7yukmsBVSewSL0_P7Qi-20" value="Empresa de despacho" style="rounded=0;whiteSpace=wrap;html=1;" parent="WIyWlLk6GJQsqaUBKTNV-1" vertex="1">
          <mxGeometry x="670" y="160" width="120" height="60" as="geometry" />
        </mxCell>
        <mxCell id="P7yukmsBVSewSL0_P7Qi-21" value="Despacho" style="rounded=0;whiteSpace=wrap;html=1;" parent="WIyWlLk6GJQsqaUBKTNV-1" vertex="1">
          <mxGeometry x="490.35" y="710" width="120" height="60" as="geometry" />
        </mxCell>
        <mxCell id="P7yukmsBVSewSL0_P7Qi-22" value="Tienen" style="rhombus;whiteSpace=wrap;html=1;shadow=0;fontFamily=Helvetica;fontSize=12;align=center;strokeWidth=1;spacing=6;spacingTop=-4;" parent="WIyWlLk6GJQsqaUBKTNV-1" vertex="1">
          <mxGeometry x="320" y="690" width="100" height="80" as="geometry" />
        </mxCell>
        <mxCell id="P7yukmsBVSewSL0_P7Qi-23" value="Tiene" style="rhombus;whiteSpace=wrap;html=1;shadow=0;fontFamily=Helvetica;fontSize=12;align=center;strokeWidth=1;spacing=6;spacingTop=-4;" parent="WIyWlLk6GJQsqaUBKTNV-1" vertex="1">
          <mxGeometry x="130" y="750" width="100" height="80" as="geometry" />
        </mxCell>
        <mxCell id="P7yukmsBVSewSL0_P7Qi-24" value="Tiene" style="rhombus;whiteSpace=wrap;html=1;shadow=0;fontFamily=Helvetica;fontSize=12;align=center;strokeWidth=1;spacing=6;spacingTop=-4;" parent="WIyWlLk6GJQsqaUBKTNV-1" vertex="1">
          <mxGeometry x="360" y="830" width="100" height="80" as="geometry" />
        </mxCell>
        <mxCell id="P7yukmsBVSewSL0_P7Qi-30" value="&amp;nbsp;Subscripciones" style="rounded=0;whiteSpace=wrap;html=1;" parent="WIyWlLk6GJQsqaUBKTNV-1" vertex="1">
          <mxGeometry x="910" y="280" width="120" height="60" as="geometry" />
        </mxCell>
        <mxCell id="P7yukmsBVSewSL0_P7Qi-33" value="Tiene" style="rhombus;whiteSpace=wrap;html=1;shadow=0;fontFamily=Helvetica;fontSize=12;align=center;strokeWidth=1;spacing=6;spacingTop=-4;" parent="WIyWlLk6GJQsqaUBKTNV-1" vertex="1">
          <mxGeometry x="816" y="160" width="100" height="80" as="geometry" />
        </mxCell>
        <mxCell id="P7yukmsBVSewSL0_P7Qi-39" value="" style="endArrow=none;html=1;rounded=0;exitX=0.5;exitY=1;exitDx=0;exitDy=0;entryX=0.5;entryY=0;entryDx=0;entryDy=0;strokeWidth=5;" parent="WIyWlLk6GJQsqaUBKTNV-1" source="P7yukmsBVSewSL0_P7Qi-2" target="WIyWlLk6GJQsqaUBKTNV-10" edge="1">
          <mxGeometry width="50" height="50" relative="1" as="geometry">
            <mxPoint x="230" y="230" as="sourcePoint" />
            <mxPoint x="230" y="280" as="targetPoint" />
            <Array as="points">
              <mxPoint x="180" y="220" />
            </Array>
          </mxGeometry>
        </mxCell>
        <mxCell id="P7yukmsBVSewSL0_P7Qi-40" value="" style="endArrow=none;html=1;rounded=0;exitX=0.5;exitY=1;exitDx=0;exitDy=0;strokeWidth=5;" parent="WIyWlLk6GJQsqaUBKTNV-1" source="WIyWlLk6GJQsqaUBKTNV-10" edge="1">
          <mxGeometry width="50" height="50" relative="1" as="geometry">
            <mxPoint x="180" y="330" as="sourcePoint" />
            <mxPoint x="180" y="360" as="targetPoint" />
          </mxGeometry>
        </mxCell>
        <mxCell id="P7yukmsBVSewSL0_P7Qi-41" value="" style="endArrow=none;html=1;rounded=0;entryX=0.5;entryY=1;entryDx=0;entryDy=0;exitX=0.5;exitY=0;exitDx=0;exitDy=0;strokeWidth=6;" parent="WIyWlLk6GJQsqaUBKTNV-1" source="P7yukmsBVSewSL0_P7Qi-14" target="P7yukmsBVSewSL0_P7Qi-13" edge="1">
          <mxGeometry width="50" height="50" relative="1" as="geometry">
            <mxPoint x="210" y="480" as="sourcePoint" />
            <mxPoint x="260" y="430" as="targetPoint" />
          </mxGeometry>
        </mxCell>
        <mxCell id="P7yukmsBVSewSL0_P7Qi-42" value="" style="endArrow=none;html=1;rounded=0;exitX=0.5;exitY=1;exitDx=0;exitDy=0;strokeWidth=1;" parent="WIyWlLk6GJQsqaUBKTNV-1" source="P7yukmsBVSewSL0_P7Qi-14" target="P7yukmsBVSewSL0_P7Qi-16" edge="1">
          <mxGeometry width="50" height="50" relative="1" as="geometry">
            <mxPoint x="240" y="610" as="sourcePoint" />
            <mxPoint x="240" y="660" as="targetPoint" />
          </mxGeometry>
        </mxCell>
        <mxCell id="P7yukmsBVSewSL0_P7Qi-44" value="" style="endArrow=classic;html=1;rounded=0;exitX=0.5;exitY=1;exitDx=0;exitDy=0;entryX=0.5;entryY=0;entryDx=0;entryDy=0;strokeWidth=5;" parent="WIyWlLk6GJQsqaUBKTNV-1" source="P7yukmsBVSewSL0_P7Qi-16" target="P7yukmsBVSewSL0_P7Qi-23" edge="1">
          <mxGeometry width="50" height="50" relative="1" as="geometry">
            <mxPoint x="230" y="790" as="sourcePoint" />
            <mxPoint x="280" y="740" as="targetPoint" />
          </mxGeometry>
        </mxCell>
        <mxCell id="P7yukmsBVSewSL0_P7Qi-48" value="" style="endArrow=none;html=1;rounded=0;exitX=0;exitY=0.5;exitDx=0;exitDy=0;entryX=1;entryY=0.5;entryDx=0;entryDy=0;" parent="WIyWlLk6GJQsqaUBKTNV-1" source="P7yukmsBVSewSL0_P7Qi-19" target="P7yukmsBVSewSL0_P7Qi-24" edge="1">
          <mxGeometry width="50" height="50" relative="1" as="geometry">
            <mxPoint x="480" y="970" as="sourcePoint" />
            <mxPoint x="530" y="920" as="targetPoint" />
          </mxGeometry>
        </mxCell>
        <mxCell id="P7yukmsBVSewSL0_P7Qi-49" value="" style="endArrow=classic;html=1;rounded=0;exitX=1;exitY=0;exitDx=0;exitDy=0;entryX=0;entryY=0.5;entryDx=0;entryDy=0;strokeWidth=5;" parent="WIyWlLk6GJQsqaUBKTNV-1" source="P7yukmsBVSewSL0_P7Qi-17" target="P7yukmsBVSewSL0_P7Qi-24" edge="1">
          <mxGeometry width="50" height="50" relative="1" as="geometry">
            <mxPoint x="290" y="870" as="sourcePoint" />
            <mxPoint x="290" y="810" as="targetPoint" />
          </mxGeometry>
        </mxCell>
        <mxCell id="P7yukmsBVSewSL0_P7Qi-50" value="" style="endArrow=classic;html=1;rounded=0;exitX=1;exitY=0.5;exitDx=0;exitDy=0;entryX=0;entryY=0.5;entryDx=0;entryDy=0;strokeWidth=5;" parent="WIyWlLk6GJQsqaUBKTNV-1" source="P7yukmsBVSewSL0_P7Qi-23" target="P7yukmsBVSewSL0_P7Qi-22" edge="1">
          <mxGeometry width="50" height="50" relative="1" as="geometry">
            <mxPoint x="340" y="610" as="sourcePoint" />
            <mxPoint x="340" y="550" as="targetPoint" />
          </mxGeometry>
        </mxCell>
        <mxCell id="P7yukmsBVSewSL0_P7Qi-51" value="" style="endArrow=classic;html=1;rounded=0;exitX=0;exitY=0.5;exitDx=0;exitDy=0;entryX=1;entryY=0.5;entryDx=0;entryDy=0;strokeWidth=5;" parent="WIyWlLk6GJQsqaUBKTNV-1" source="P7yukmsBVSewSL0_P7Qi-21" target="P7yukmsBVSewSL0_P7Qi-22" edge="1">
          <mxGeometry width="50" height="50" relative="1" as="geometry">
            <mxPoint x="510.35" y="785" as="sourcePoint" />
            <mxPoint x="416" y="750" as="targetPoint" />
          </mxGeometry>
        </mxCell>
        <mxCell id="P7yukmsBVSewSL0_P7Qi-53" value="Tienen" style="rhombus;whiteSpace=wrap;html=1;shadow=0;fontFamily=Helvetica;fontSize=12;align=center;strokeWidth=1;spacing=6;spacingTop=-4;" parent="WIyWlLk6GJQsqaUBKTNV-1" vertex="1">
          <mxGeometry x="650" y="289.62" width="100" height="80" as="geometry" />
        </mxCell>
        <mxCell id="P7yukmsBVSewSL0_P7Qi-112" value="" style="endArrow=classic;html=1;rounded=0;entryX=1;entryY=0.5;entryDx=0;entryDy=0;strokeWidth=5;exitX=0.25;exitY=0;exitDx=0;exitDy=0;" parent="WIyWlLk6GJQsqaUBKTNV-1" source="P7yukmsBVSewSL0_P7Qi-30" target="P7yukmsBVSewSL0_P7Qi-33" edge="1">
          <mxGeometry width="50" height="50" relative="1" as="geometry">
            <mxPoint x="880" y="170" as="sourcePoint" />
            <mxPoint x="870" y="250" as="targetPoint" />
          </mxGeometry>
        </mxCell>
        <mxCell id="P7yukmsBVSewSL0_P7Qi-116" value="" style="endArrow=none;html=1;rounded=0;entryX=1;entryY=0.5;entryDx=0;entryDy=0;exitX=0;exitY=0.5;exitDx=0;exitDy=0;" parent="WIyWlLk6GJQsqaUBKTNV-1" source="P7yukmsBVSewSL0_P7Qi-33" target="P7yukmsBVSewSL0_P7Qi-20" edge="1">
          <mxGeometry width="50" height="50" relative="1" as="geometry">
            <mxPoint x="730.0000000000005" y="240" as="sourcePoint" />
            <mxPoint x="680" y="240" as="targetPoint" />
            <Array as="points" />
          </mxGeometry>
        </mxCell>
        <mxCell id="P7yukmsBVSewSL0_P7Qi-118" value="" style="endArrow=none;html=1;rounded=0;entryX=0.25;entryY=1;entryDx=0;entryDy=0;exitX=0.5;exitY=0;exitDx=0;exitDy=0;" parent="WIyWlLk6GJQsqaUBKTNV-1" source="P7yukmsBVSewSL0_P7Qi-53" target="P7yukmsBVSewSL0_P7Qi-20" edge="1">
          <mxGeometry width="50" height="50" relative="1" as="geometry">
            <mxPoint x="350" y="490" as="sourcePoint" />
            <mxPoint x="400" y="440" as="targetPoint" />
          </mxGeometry>
        </mxCell>
        <mxCell id="P7yukmsBVSewSL0_P7Qi-119" value="" style="endArrow=classic;html=1;rounded=0;exitX=1;exitY=0.5;exitDx=0;exitDy=0;strokeWidth=5;entryX=0;entryY=0.5;entryDx=0;entryDy=0;" parent="WIyWlLk6GJQsqaUBKTNV-1" source="P7yukmsBVSewSL0_P7Qi-18" target="P7yukmsBVSewSL0_P7Qi-53" edge="1">
          <mxGeometry width="50" height="50" relative="1" as="geometry">
            <mxPoint x="400" y="329.62" as="sourcePoint" />
            <mxPoint x="660" y="330" as="targetPoint" />
          </mxGeometry>
        </mxCell>
        <mxCell id="P7yukmsBVSewSL0_P7Qi-124" value="Vigente" style="ellipse;whiteSpace=wrap;html=1;" parent="WIyWlLk6GJQsqaUBKTNV-1" vertex="1">
          <mxGeometry x="20" y="180" width="80" height="30" as="geometry" />
        </mxCell>
        <mxCell id="P7yukmsBVSewSL0_P7Qi-125" value="Descripción" style="ellipse;whiteSpace=wrap;html=1;" parent="WIyWlLk6GJQsqaUBKTNV-1" vertex="1">
          <mxGeometry x="-30" y="210" width="80" height="50" as="geometry" />
        </mxCell>
        <mxCell id="P7yukmsBVSewSL0_P7Qi-126" value="" style="endArrow=none;html=1;rounded=0;entryX=0;entryY=1;entryDx=0;entryDy=0;exitX=1;exitY=0.5;exitDx=0;exitDy=0;" parent="WIyWlLk6GJQsqaUBKTNV-1" source="P7yukmsBVSewSL0_P7Qi-125" target="P7yukmsBVSewSL0_P7Qi-2" edge="1">
          <mxGeometry width="50" height="50" relative="1" as="geometry">
            <mxPoint x="80" y="300" as="sourcePoint" />
            <mxPoint x="130" y="250" as="targetPoint" />
          </mxGeometry>
        </mxCell>
        <mxCell id="P7yukmsBVSewSL0_P7Qi-127" value="" style="endArrow=none;html=1;rounded=0;entryX=0;entryY=0.5;entryDx=0;entryDy=0;exitX=1;exitY=0.5;exitDx=0;exitDy=0;" parent="WIyWlLk6GJQsqaUBKTNV-1" source="P7yukmsBVSewSL0_P7Qi-124" target="P7yukmsBVSewSL0_P7Qi-2" edge="1">
          <mxGeometry width="50" height="50" relative="1" as="geometry">
            <mxPoint x="10" y="340" as="sourcePoint" />
            <mxPoint x="60" y="290" as="targetPoint" />
          </mxGeometry>
        </mxCell>
        <mxCell id="P7yukmsBVSewSL0_P7Qi-128" value="" style="endArrow=none;html=1;rounded=0;entryX=0;entryY=0.25;entryDx=0;entryDy=0;exitX=1;exitY=0.5;exitDx=0;exitDy=0;" parent="WIyWlLk6GJQsqaUBKTNV-1" source="P7yukmsBVSewSL0_P7Qi-8" target="P7yukmsBVSewSL0_P7Qi-2" edge="1">
          <mxGeometry width="50" height="50" relative="1" as="geometry">
            <mxPoint x="50" y="160" as="sourcePoint" />
            <mxPoint x="100" y="110" as="targetPoint" />
          </mxGeometry>
        </mxCell>
        <mxCell id="P7yukmsBVSewSL0_P7Qi-130" value="&lt;u&gt;id_cliente&lt;/u&gt;" style="ellipse;whiteSpace=wrap;html=1;" parent="WIyWlLk6GJQsqaUBKTNV-1" vertex="1">
          <mxGeometry x="360" y="985" width="80" height="50" as="geometry" />
        </mxCell>
        <mxCell id="P7yukmsBVSewSL0_P7Qi-132" value="Correo" style="ellipse;whiteSpace=wrap;html=1;" parent="WIyWlLk6GJQsqaUBKTNV-1" vertex="1">
          <mxGeometry x="534.56" y="1088.35" width="80" height="50" as="geometry" />
        </mxCell>
        <mxCell id="P7yukmsBVSewSL0_P7Qi-131" value="Nombre" style="ellipse;whiteSpace=wrap;html=1;" parent="WIyWlLk6GJQsqaUBKTNV-1" vertex="1">
          <mxGeometry x="452.56" y="1099.78" width="62" height="18.57" as="geometry" />
        </mxCell>
        <mxCell id="P7yukmsBVSewSL0_P7Qi-133" value="" style="endArrow=none;html=1;rounded=0;entryX=0;entryY=1;entryDx=0;entryDy=0;exitX=1;exitY=0.5;exitDx=0;exitDy=0;" parent="WIyWlLk6GJQsqaUBKTNV-1" edge="1">
          <mxGeometry width="50" height="50" relative="1" as="geometry">
            <mxPoint x="434.56" y="1003.3500000000001" as="sourcePoint" />
            <mxPoint x="474.56" y="1004.78" as="targetPoint" />
          </mxGeometry>
        </mxCell>
        <mxCell id="P7yukmsBVSewSL0_P7Qi-134" value="" style="endArrow=none;html=1;rounded=0;entryX=0.25;entryY=1;entryDx=0;entryDy=0;exitX=0.5;exitY=0;exitDx=0;exitDy=0;" parent="WIyWlLk6GJQsqaUBKTNV-1" source="P7yukmsBVSewSL0_P7Qi-131" edge="1">
          <mxGeometry width="50" height="50" relative="1" as="geometry">
            <mxPoint x="524.56" y="1039.78" as="sourcePoint" />
            <mxPoint x="504.56" y="1004.78" as="targetPoint" />
          </mxGeometry>
        </mxCell>
        <mxCell id="P7yukmsBVSewSL0_P7Qi-135" value="" style="endArrow=none;html=1;rounded=0;entryX=0.75;entryY=1;entryDx=0;entryDy=0;exitX=0.5;exitY=0;exitDx=0;exitDy=0;" parent="WIyWlLk6GJQsqaUBKTNV-1" source="P7yukmsBVSewSL0_P7Qi-132" edge="1">
          <mxGeometry width="50" height="50" relative="1" as="geometry">
            <mxPoint x="644.56" y="1029.78" as="sourcePoint" />
            <mxPoint x="564.56" y="1004.78" as="targetPoint" />
          </mxGeometry>
        </mxCell>
        <mxCell id="P7yukmsBVSewSL0_P7Qi-136" value="Nombre" style="ellipse;whiteSpace=wrap;html=1;" parent="WIyWlLk6GJQsqaUBKTNV-1" vertex="1">
          <mxGeometry x="-190" y="245" width="80" height="50" as="geometry" />
        </mxCell>
        <mxCell id="P7yukmsBVSewSL0_P7Qi-137" value="&lt;u&gt;id_plato&lt;/u&gt;" style="ellipse;whiteSpace=wrap;html=1;" parent="WIyWlLk6GJQsqaUBKTNV-1" vertex="1">
          <mxGeometry x="-60" y="290" width="80" height="50" as="geometry" />
        </mxCell>
        <mxCell id="P7yukmsBVSewSL0_P7Qi-138" value="Descripción" style="ellipse;whiteSpace=wrap;html=1;" parent="WIyWlLk6GJQsqaUBKTNV-1" vertex="1">
          <mxGeometry x="-220" y="300" width="80" height="50" as="geometry" />
        </mxCell>
        <mxCell id="P7yukmsBVSewSL0_P7Qi-140" value="Disponibilidad" style="ellipse;whiteSpace=wrap;html=1;" parent="WIyWlLk6GJQsqaUBKTNV-1" vertex="1">
          <mxGeometry x="-170" y="400" width="90" height="45" as="geometry" />
        </mxCell>
        <mxCell id="P7yukmsBVSewSL0_P7Qi-141" value="Porción" style="ellipse;whiteSpace=wrap;html=1;" parent="WIyWlLk6GJQsqaUBKTNV-1" vertex="1">
          <mxGeometry x="-150" y="445" width="100" height="45" as="geometry" />
        </mxCell>
        <mxCell id="P7yukmsBVSewSL0_P7Qi-142" value="id_restaurant" style="ellipse;whiteSpace=wrap;html=1;" parent="WIyWlLk6GJQsqaUBKTNV-1" vertex="1">
          <mxGeometry x="-170" y="360" width="110" height="40" as="geometry" />
        </mxCell>
        <mxCell id="P7yukmsBVSewSL0_P7Qi-143" value="Precio" style="ellipse;whiteSpace=wrap;html=1;" parent="WIyWlLk6GJQsqaUBKTNV-1" vertex="1">
          <mxGeometry x="-10" y="430" width="80" height="50" as="geometry" />
        </mxCell>
        <mxCell id="P7yukmsBVSewSL0_P7Qi-144" value="" style="endArrow=none;html=1;rounded=0;entryX=1;entryY=0.5;entryDx=0;entryDy=0;exitX=0.25;exitY=0;exitDx=0;exitDy=0;" parent="WIyWlLk6GJQsqaUBKTNV-1" source="P7yukmsBVSewSL0_P7Qi-13" target="P7yukmsBVSewSL0_P7Qi-137" edge="1">
          <mxGeometry width="50" height="50" relative="1" as="geometry">
            <mxPoint x="80" y="410" as="sourcePoint" />
            <mxPoint x="130" y="360" as="targetPoint" />
          </mxGeometry>
        </mxCell>
        <mxCell id="P7yukmsBVSewSL0_P7Qi-145" value="" style="endArrow=none;html=1;rounded=0;entryX=0;entryY=1;entryDx=0;entryDy=0;exitX=1;exitY=0;exitDx=0;exitDy=0;" parent="WIyWlLk6GJQsqaUBKTNV-1" source="P7yukmsBVSewSL0_P7Qi-143" target="P7yukmsBVSewSL0_P7Qi-13" edge="1">
          <mxGeometry width="50" height="50" relative="1" as="geometry">
            <mxPoint x="70" y="450" as="sourcePoint" />
            <mxPoint x="120" y="400" as="targetPoint" />
          </mxGeometry>
        </mxCell>
        <mxCell id="P7yukmsBVSewSL0_P7Qi-146" value="" style="endArrow=none;html=1;rounded=0;entryX=1;entryY=0.5;entryDx=0;entryDy=0;exitX=0;exitY=0;exitDx=0;exitDy=0;" parent="WIyWlLk6GJQsqaUBKTNV-1" source="P7yukmsBVSewSL0_P7Qi-13" target="P7yukmsBVSewSL0_P7Qi-136" edge="1">
          <mxGeometry width="50" height="50" relative="1" as="geometry">
            <mxPoint x="-280" y="410" as="sourcePoint" />
            <mxPoint x="-230" y="360" as="targetPoint" />
            <Array as="points">
              <mxPoint x="-40" y="350" />
            </Array>
          </mxGeometry>
        </mxCell>
        <mxCell id="P7yukmsBVSewSL0_P7Qi-147" value="" style="endArrow=none;html=1;rounded=0;entryX=1;entryY=0.5;entryDx=0;entryDy=0;exitX=0;exitY=0.25;exitDx=0;exitDy=0;" parent="WIyWlLk6GJQsqaUBKTNV-1" source="P7yukmsBVSewSL0_P7Qi-13" target="P7yukmsBVSewSL0_P7Qi-138" edge="1">
          <mxGeometry width="50" height="50" relative="1" as="geometry">
            <mxPoint x="-300" y="450" as="sourcePoint" />
            <mxPoint x="-250" y="400" as="targetPoint" />
            <Array as="points">
              <mxPoint x="-20" y="360" />
            </Array>
          </mxGeometry>
        </mxCell>
        <mxCell id="P7yukmsBVSewSL0_P7Qi-148" value="" style="endArrow=none;html=1;rounded=0;exitX=1;exitY=0.5;exitDx=0;exitDy=0;entryX=-0.008;entryY=0.367;entryDx=0;entryDy=0;entryPerimeter=0;" parent="WIyWlLk6GJQsqaUBKTNV-1" source="P7yukmsBVSewSL0_P7Qi-142" target="P7yukmsBVSewSL0_P7Qi-13" edge="1">
          <mxGeometry width="50" height="50" relative="1" as="geometry">
            <mxPoint x="-420" y="490" as="sourcePoint" />
            <mxPoint x="90" y="390" as="targetPoint" />
            <Array as="points">
              <mxPoint x="-10" y="380" />
            </Array>
          </mxGeometry>
        </mxCell>
        <mxCell id="P7yukmsBVSewSL0_P7Qi-150" value="" style="endArrow=none;html=1;rounded=0;entryX=0;entryY=0.75;entryDx=0;entryDy=0;exitX=0.989;exitY=0.418;exitDx=0;exitDy=0;exitPerimeter=0;" parent="WIyWlLk6GJQsqaUBKTNV-1" source="P7yukmsBVSewSL0_P7Qi-140" target="P7yukmsBVSewSL0_P7Qi-13" edge="1">
          <mxGeometry width="50" height="50" relative="1" as="geometry">
            <mxPoint x="-270" y="640" as="sourcePoint" />
            <mxPoint x="-220" y="590" as="targetPoint" />
            <Array as="points" />
          </mxGeometry>
        </mxCell>
        <mxCell id="P7yukmsBVSewSL0_P7Qi-151" value="" style="endArrow=none;html=1;rounded=0;entryX=-0.015;entryY=0.875;entryDx=0;entryDy=0;entryPerimeter=0;exitX=1;exitY=0;exitDx=0;exitDy=0;" parent="WIyWlLk6GJQsqaUBKTNV-1" source="P7yukmsBVSewSL0_P7Qi-141" target="P7yukmsBVSewSL0_P7Qi-13" edge="1">
          <mxGeometry width="50" height="50" relative="1" as="geometry">
            <mxPoint x="-110" y="700" as="sourcePoint" />
            <mxPoint x="-60" y="650" as="targetPoint" />
            <Array as="points">
              <mxPoint x="-10" y="430" />
            </Array>
          </mxGeometry>
        </mxCell>
        <mxCell id="P7yukmsBVSewSL0_P7Qi-152" value="tiempo_preparación" style="ellipse;whiteSpace=wrap;html=1;" parent="WIyWlLk6GJQsqaUBKTNV-1" vertex="1">
          <mxGeometry x="-30" y="485" width="120" height="45" as="geometry" />
        </mxCell>
        <mxCell id="P7yukmsBVSewSL0_P7Qi-153" value="" style="endArrow=none;html=1;rounded=0;entryX=0.079;entryY=1.005;entryDx=0;entryDy=0;entryPerimeter=0;" parent="WIyWlLk6GJQsqaUBKTNV-1" source="P7yukmsBVSewSL0_P7Qi-152" target="P7yukmsBVSewSL0_P7Qi-13" edge="1">
          <mxGeometry width="50" height="50" relative="1" as="geometry">
            <mxPoint x="70" y="540" as="sourcePoint" />
            <mxPoint x="120" y="490" as="targetPoint" />
          </mxGeometry>
        </mxCell>
        <mxCell id="P7yukmsBVSewSL0_P7Qi-156" value="&lt;u&gt;id_registro&lt;/u&gt;" style="ellipse;whiteSpace=wrap;html=1;" parent="WIyWlLk6GJQsqaUBKTNV-1" vertex="1">
          <mxGeometry x="40" y="585" width="80" height="50" as="geometry" />
        </mxCell>
        <mxCell id="P7yukmsBVSewSL0_P7Qi-157" value="id_plato" style="ellipse;whiteSpace=wrap;html=1;" parent="WIyWlLk6GJQsqaUBKTNV-1" vertex="1">
          <mxGeometry x="-60" y="585" width="80" height="50" as="geometry" />
        </mxCell>
        <mxCell id="P7yukmsBVSewSL0_P7Qi-158" value="id_restaurant" style="ellipse;whiteSpace=wrap;html=1;" parent="WIyWlLk6GJQsqaUBKTNV-1" vertex="1">
          <mxGeometry x="-60" y="685" width="90" height="45" as="geometry" />
        </mxCell>
        <mxCell id="P7yukmsBVSewSL0_P7Qi-159" value="cantidad" style="ellipse;whiteSpace=wrap;html=1;" parent="WIyWlLk6GJQsqaUBKTNV-1" vertex="1">
          <mxGeometry x="-120" y="630" width="80" height="50" as="geometry" />
        </mxCell>
        <mxCell id="P7yukmsBVSewSL0_P7Qi-162" value="" style="endArrow=none;html=1;rounded=0;entryX=1;entryY=1;entryDx=0;entryDy=0;exitX=0.25;exitY=0;exitDx=0;exitDy=0;" parent="WIyWlLk6GJQsqaUBKTNV-1" source="P7yukmsBVSewSL0_P7Qi-16" target="P7yukmsBVSewSL0_P7Qi-156" edge="1">
          <mxGeometry width="50" height="50" relative="1" as="geometry">
            <mxPoint x="-220" y="830" as="sourcePoint" />
            <mxPoint x="-170" y="780" as="targetPoint" />
          </mxGeometry>
        </mxCell>
        <mxCell id="P7yukmsBVSewSL0_P7Qi-163" value="" style="endArrow=none;html=1;rounded=0;entryX=1;entryY=0.5;entryDx=0;entryDy=0;exitX=0;exitY=0.28;exitDx=0;exitDy=0;exitPerimeter=0;" parent="WIyWlLk6GJQsqaUBKTNV-1" source="P7yukmsBVSewSL0_P7Qi-16" target="P7yukmsBVSewSL0_P7Qi-157" edge="1">
          <mxGeometry width="50" height="50" relative="1" as="geometry">
            <mxPoint x="-320" y="710" as="sourcePoint" />
            <mxPoint x="-270" y="660" as="targetPoint" />
            <Array as="points">
              <mxPoint x="60" y="640" />
            </Array>
          </mxGeometry>
        </mxCell>
        <mxCell id="P7yukmsBVSewSL0_P7Qi-164" value="" style="endArrow=none;html=1;rounded=0;entryX=1;entryY=0.5;entryDx=0;entryDy=0;" parent="WIyWlLk6GJQsqaUBKTNV-1" target="P7yukmsBVSewSL0_P7Qi-159" edge="1">
          <mxGeometry width="50" height="50" relative="1" as="geometry">
            <mxPoint x="120" y="660" as="sourcePoint" />
            <mxPoint x="-310" y="690" as="targetPoint" />
            <Array as="points">
              <mxPoint x="40" y="650" />
            </Array>
          </mxGeometry>
        </mxCell>
        <mxCell id="P7yukmsBVSewSL0_P7Qi-165" value="" style="endArrow=none;html=1;rounded=0;entryX=0;entryY=0.5;entryDx=0;entryDy=0;exitX=1;exitY=0.5;exitDx=0;exitDy=0;" parent="WIyWlLk6GJQsqaUBKTNV-1" source="P7yukmsBVSewSL0_P7Qi-158" target="P7yukmsBVSewSL0_P7Qi-16" edge="1">
          <mxGeometry width="50" height="50" relative="1" as="geometry">
            <mxPoint x="-180" y="830" as="sourcePoint" />
            <mxPoint x="-130" y="780" as="targetPoint" />
          </mxGeometry>
        </mxCell>
        <mxCell id="P7yukmsBVSewSL0_P7Qi-166" value="" style="endArrow=none;html=1;rounded=0;entryX=0;entryY=1;entryDx=0;entryDy=0;exitX=1;exitY=0;exitDx=0;exitDy=0;" parent="WIyWlLk6GJQsqaUBKTNV-1" source="Pl5dN0OMT_UQbBaoHpls-32" target="P7yukmsBVSewSL0_P7Qi-16" edge="1">
          <mxGeometry width="50" height="50" relative="1" as="geometry">
            <mxPoint x="68.6400000000001" y="736.8500000000004" as="sourcePoint" />
            <mxPoint x="-60" y="850" as="targetPoint" />
          </mxGeometry>
        </mxCell>
        <mxCell id="P7yukmsBVSewSL0_P7Qi-171" value="Fecha" style="ellipse;whiteSpace=wrap;html=1;" parent="WIyWlLk6GJQsqaUBKTNV-1" vertex="1">
          <mxGeometry x="20" y="960" width="80" height="50" as="geometry" />
        </mxCell>
        <mxCell id="P7yukmsBVSewSL0_P7Qi-172" value="" style="endArrow=none;html=1;rounded=0;entryX=0;entryY=1;entryDx=0;entryDy=0;exitX=1;exitY=0;exitDx=0;exitDy=0;" parent="WIyWlLk6GJQsqaUBKTNV-1" source="P7yukmsBVSewSL0_P7Qi-171" target="P7yukmsBVSewSL0_P7Qi-17" edge="1">
          <mxGeometry width="50" height="50" relative="1" as="geometry">
            <mxPoint x="40" y="1090" as="sourcePoint" />
            <mxPoint x="90" y="1040" as="targetPoint" />
          </mxGeometry>
        </mxCell>
        <mxCell id="P7yukmsBVSewSL0_P7Qi-173" value="Hora" style="ellipse;whiteSpace=wrap;html=1;" parent="WIyWlLk6GJQsqaUBKTNV-1" vertex="1">
          <mxGeometry x="30" y="1025" width="80" height="50" as="geometry" />
        </mxCell>
        <mxCell id="P7yukmsBVSewSL0_P7Qi-175" value="" style="endArrow=none;html=1;rounded=0;entryX=0.25;entryY=1;entryDx=0;entryDy=0;exitX=0.743;exitY=0.081;exitDx=0;exitDy=0;exitPerimeter=0;" parent="WIyWlLk6GJQsqaUBKTNV-1" source="P7yukmsBVSewSL0_P7Qi-173" target="P7yukmsBVSewSL0_P7Qi-17" edge="1">
          <mxGeometry width="50" height="50" relative="1" as="geometry">
            <mxPoint x="140" y="1030" as="sourcePoint" />
            <mxPoint x="190" y="980" as="targetPoint" />
          </mxGeometry>
        </mxCell>
        <mxCell id="P7yukmsBVSewSL0_P7Qi-178" value="Estado" style="ellipse;whiteSpace=wrap;html=1;" parent="WIyWlLk6GJQsqaUBKTNV-1" vertex="1">
          <mxGeometry x="110" y="1020" width="80" height="50" as="geometry" />
        </mxCell>
        <mxCell id="P7yukmsBVSewSL0_P7Qi-179" value="" style="endArrow=none;html=1;rounded=0;entryX=0.5;entryY=1;entryDx=0;entryDy=0;exitX=0.5;exitY=0;exitDx=0;exitDy=0;" parent="WIyWlLk6GJQsqaUBKTNV-1" source="P7yukmsBVSewSL0_P7Qi-178" target="P7yukmsBVSewSL0_P7Qi-17" edge="1">
          <mxGeometry width="50" height="50" relative="1" as="geometry">
            <mxPoint x="210" y="1070" as="sourcePoint" />
            <mxPoint x="260" y="1020" as="targetPoint" />
            <Array as="points" />
          </mxGeometry>
        </mxCell>
        <mxCell id="P7yukmsBVSewSL0_P7Qi-182" value="Evaluación_cliente" style="ellipse;whiteSpace=wrap;html=1;" parent="WIyWlLk6GJQsqaUBKTNV-1" vertex="1">
          <mxGeometry x="140" y="1075" width="110" height="50" as="geometry" />
        </mxCell>
        <mxCell id="P7yukmsBVSewSL0_P7Qi-183" value="" style="endArrow=none;html=1;rounded=0;entryX=0.626;entryY=1.004;entryDx=0;entryDy=0;entryPerimeter=0;exitX=0.5;exitY=0;exitDx=0;exitDy=0;" parent="WIyWlLk6GJQsqaUBKTNV-1" source="P7yukmsBVSewSL0_P7Qi-182" target="P7yukmsBVSewSL0_P7Qi-17" edge="1">
          <mxGeometry width="50" height="50" relative="1" as="geometry">
            <mxPoint x="200" y="1090" as="sourcePoint" />
            <mxPoint x="250" y="1040" as="targetPoint" />
            <Array as="points" />
          </mxGeometry>
        </mxCell>
        <mxCell id="P7yukmsBVSewSL0_P7Qi-301" value="Evaluación_despachador" style="ellipse;whiteSpace=wrap;html=1;" parent="WIyWlLk6GJQsqaUBKTNV-1" vertex="1">
          <mxGeometry x="190" y="990" width="140" height="50" as="geometry" />
        </mxCell>
        <mxCell id="P7yukmsBVSewSL0_P7Qi-302" value="" style="endArrow=none;html=1;rounded=0;entryX=0.846;entryY=1.018;entryDx=0;entryDy=0;entryPerimeter=0;exitX=0.5;exitY=0;exitDx=0;exitDy=0;" parent="WIyWlLk6GJQsqaUBKTNV-1" source="P7yukmsBVSewSL0_P7Qi-301" target="P7yukmsBVSewSL0_P7Qi-17" edge="1">
          <mxGeometry width="50" height="50" relative="1" as="geometry">
            <mxPoint x="290" y="1040" as="sourcePoint" />
            <mxPoint x="340" y="990" as="targetPoint" />
          </mxGeometry>
        </mxCell>
        <mxCell id="P7yukmsBVSewSL0_P7Qi-318" value="ciclo_facturacion" style="ellipse;whiteSpace=wrap;html=1;" parent="WIyWlLk6GJQsqaUBKTNV-1" vertex="1">
          <mxGeometry x="983" y="385" width="90" height="40" as="geometry" />
        </mxCell>
        <mxCell id="P7yukmsBVSewSL0_P7Qi-319" value="" style="endArrow=none;html=1;rounded=0;entryX=0.5;entryY=0;entryDx=0;entryDy=0;exitX=0.75;exitY=1;exitDx=0;exitDy=0;" parent="WIyWlLk6GJQsqaUBKTNV-1" source="P7yukmsBVSewSL0_P7Qi-30" target="P7yukmsBVSewSL0_P7Qi-318" edge="1">
          <mxGeometry width="50" height="50" relative="1" as="geometry">
            <mxPoint x="1021.4399999999996" y="417.02" as="sourcePoint" />
            <mxPoint x="1090" y="480" as="targetPoint" />
          </mxGeometry>
        </mxCell>
        <mxCell id="P7yukmsBVSewSL0_P7Qi-320" value="&lt;u&gt;id_sub&lt;/u&gt;" style="ellipse;whiteSpace=wrap;html=1;" parent="WIyWlLk6GJQsqaUBKTNV-1" vertex="1">
          <mxGeometry x="1020" y="180" width="80" height="50" as="geometry" />
        </mxCell>
        <mxCell id="P7yukmsBVSewSL0_P7Qi-321" value="" style="endArrow=none;html=1;rounded=0;entryX=0;entryY=1;entryDx=0;entryDy=0;exitX=0.5;exitY=0;exitDx=0;exitDy=0;" parent="WIyWlLk6GJQsqaUBKTNV-1" source="P7yukmsBVSewSL0_P7Qi-30" target="P7yukmsBVSewSL0_P7Qi-320" edge="1">
          <mxGeometry width="50" height="50" relative="1" as="geometry">
            <mxPoint x="1040" y="220" as="sourcePoint" />
            <mxPoint x="1090" y="170" as="targetPoint" />
          </mxGeometry>
        </mxCell>
        <mxCell id="P7yukmsBVSewSL0_P7Qi-329" value="Nombre" style="ellipse;whiteSpace=wrap;html=1;" parent="WIyWlLk6GJQsqaUBKTNV-1" vertex="1">
          <mxGeometry x="540" y="155" width="80" height="50" as="geometry" />
        </mxCell>
        <mxCell id="P7yukmsBVSewSL0_P7Qi-476" value="Estado" style="ellipse;whiteSpace=wrap;html=1;" parent="WIyWlLk6GJQsqaUBKTNV-1" vertex="1">
          <mxGeometry x="1080" y="220" width="80" height="30" as="geometry" />
        </mxCell>
        <mxCell id="P7yukmsBVSewSL0_P7Qi-479" value="Medio_pago" style="ellipse;whiteSpace=wrap;html=1;" parent="WIyWlLk6GJQsqaUBKTNV-1" vertex="1">
          <mxGeometry x="1110" y="255" width="80" height="30" as="geometry" />
        </mxCell>
        <mxCell id="P7yukmsBVSewSL0_P7Qi-480" value="fecha_próximo_pago" style="ellipse;whiteSpace=wrap;html=1;" parent="WIyWlLk6GJQsqaUBKTNV-1" vertex="1">
          <mxGeometry x="1110" y="347.5" width="120" height="35" as="geometry" />
        </mxCell>
        <mxCell id="P7yukmsBVSewSL0_P7Qi-481" value="" style="endArrow=none;html=1;rounded=0;entryX=0;entryY=0.5;entryDx=0;entryDy=0;exitX=1;exitY=0;exitDx=0;exitDy=0;" parent="WIyWlLk6GJQsqaUBKTNV-1" source="P7yukmsBVSewSL0_P7Qi-30" target="P7yukmsBVSewSL0_P7Qi-476" edge="1">
          <mxGeometry width="50" height="50" relative="1" as="geometry">
            <mxPoint x="1070" y="430" as="sourcePoint" />
            <mxPoint x="1100" y="330" as="targetPoint" />
          </mxGeometry>
        </mxCell>
        <mxCell id="P7yukmsBVSewSL0_P7Qi-484" value="" style="endArrow=none;html=1;rounded=0;entryX=0.84;entryY=1.016;entryDx=0;entryDy=0;entryPerimeter=0;exitX=0;exitY=0.5;exitDx=0;exitDy=0;" parent="WIyWlLk6GJQsqaUBKTNV-1" source="P7yukmsBVSewSL0_P7Qi-480" target="P7yukmsBVSewSL0_P7Qi-30" edge="1">
          <mxGeometry width="50" height="50" relative="1" as="geometry">
            <mxPoint x="1010" y="270" as="sourcePoint" />
            <mxPoint x="1060" y="220" as="targetPoint" />
            <Array as="points" />
          </mxGeometry>
        </mxCell>
        <mxCell id="P7yukmsBVSewSL0_P7Qi-485" value="&lt;u&gt;id_empresa&lt;/u&gt;" style="ellipse;whiteSpace=wrap;html=1;" parent="WIyWlLk6GJQsqaUBKTNV-1" vertex="1">
          <mxGeometry x="560" y="95" width="80" height="50" as="geometry" />
        </mxCell>
        <mxCell id="P7yukmsBVSewSL0_P7Qi-486" value="" style="endArrow=none;html=1;rounded=0;exitX=0.25;exitY=0;exitDx=0;exitDy=0;entryX=1;entryY=0.5;entryDx=0;entryDy=0;" parent="WIyWlLk6GJQsqaUBKTNV-1" source="P7yukmsBVSewSL0_P7Qi-20" target="P7yukmsBVSewSL0_P7Qi-485" edge="1">
          <mxGeometry width="50" height="50" relative="1" as="geometry">
            <mxPoint x="650" y="150" as="sourcePoint" />
            <mxPoint x="700" y="100" as="targetPoint" />
          </mxGeometry>
        </mxCell>
        <mxCell id="P7yukmsBVSewSL0_P7Qi-487" value="" style="endArrow=none;html=1;rounded=0;entryX=1;entryY=0.5;entryDx=0;entryDy=0;exitX=0;exitY=0.25;exitDx=0;exitDy=0;" parent="WIyWlLk6GJQsqaUBKTNV-1" source="P7yukmsBVSewSL0_P7Qi-20" target="P7yukmsBVSewSL0_P7Qi-329" edge="1">
          <mxGeometry width="50" height="50" relative="1" as="geometry">
            <mxPoint x="680" y="160" as="sourcePoint" />
            <mxPoint x="730" y="110" as="targetPoint" />
          </mxGeometry>
        </mxCell>
        <mxCell id="P7yukmsBVSewSL0_P7Qi-497" value="Nombre" style="ellipse;whiteSpace=wrap;html=1;" parent="WIyWlLk6GJQsqaUBKTNV-1" vertex="1">
          <mxGeometry x="320" y="315" width="80" height="50" as="geometry" />
        </mxCell>
        <mxCell id="P7yukmsBVSewSL0_P7Qi-498" value="&lt;u&gt;id_despachador&lt;/u&gt;" style="ellipse;whiteSpace=wrap;html=1;" parent="WIyWlLk6GJQsqaUBKTNV-1" vertex="1">
          <mxGeometry x="320" y="365" width="96" height="55" as="geometry" />
        </mxCell>
        <mxCell id="P7yukmsBVSewSL0_P7Qi-504" value="&lt;u&gt;id_despacho&lt;/u&gt;" style="ellipse;whiteSpace=wrap;html=1;" parent="WIyWlLk6GJQsqaUBKTNV-1" vertex="1">
          <mxGeometry x="624.35" y="725" width="70" height="35" as="geometry" />
        </mxCell>
        <mxCell id="P7yukmsBVSewSL0_P7Qi-505" value="" style="endArrow=none;html=1;rounded=0;entryX=0;entryY=0.5;entryDx=0;entryDy=0;exitX=1;exitY=0.5;exitDx=0;exitDy=0;" parent="WIyWlLk6GJQsqaUBKTNV-1" source="P7yukmsBVSewSL0_P7Qi-497" target="P7yukmsBVSewSL0_P7Qi-18" edge="1">
          <mxGeometry width="50" height="50" relative="1" as="geometry">
            <mxPoint x="390.00000000000045" y="334.62" as="sourcePoint" />
            <mxPoint x="410" y="439.62" as="targetPoint" />
          </mxGeometry>
        </mxCell>
        <mxCell id="P7yukmsBVSewSL0_P7Qi-506" value="" style="endArrow=none;html=1;rounded=0;entryX=0;entryY=1;entryDx=0;entryDy=0;exitX=1;exitY=0;exitDx=0;exitDy=0;" parent="WIyWlLk6GJQsqaUBKTNV-1" source="P7yukmsBVSewSL0_P7Qi-498" target="P7yukmsBVSewSL0_P7Qi-18" edge="1">
          <mxGeometry width="50" height="50" relative="1" as="geometry">
            <mxPoint x="405.0720000000001" y="375.39" as="sourcePoint" />
            <mxPoint x="530" y="379.62" as="targetPoint" />
          </mxGeometry>
        </mxCell>
        <mxCell id="P7yukmsBVSewSL0_P7Qi-507" value="" style="endArrow=none;html=1;rounded=0;entryX=1;entryY=0.5;entryDx=0;entryDy=0;exitX=0;exitY=0;exitDx=0;exitDy=0;" parent="WIyWlLk6GJQsqaUBKTNV-1" source="P7yukmsBVSewSL0_P7Qi-18" target="Pl5dN0OMT_UQbBaoHpls-46" edge="1">
          <mxGeometry width="50" height="50" relative="1" as="geometry">
            <mxPoint x="590" y="429.62" as="sourcePoint" />
            <mxPoint x="390.00000000000045" y="274.62" as="targetPoint" />
          </mxGeometry>
        </mxCell>
        <mxCell id="P7yukmsBVSewSL0_P7Qi-510" value="" style="endArrow=none;html=1;rounded=0;entryX=0.996;entryY=0.59;entryDx=0;entryDy=0;entryPerimeter=0;exitX=0;exitY=0.5;exitDx=0;exitDy=0;" parent="WIyWlLk6GJQsqaUBKTNV-1" source="P7yukmsBVSewSL0_P7Qi-504" target="P7yukmsBVSewSL0_P7Qi-21" edge="1">
          <mxGeometry width="50" height="50" relative="1" as="geometry">
            <mxPoint x="647.3088247656065" y="747.4196421065958" as="sourcePoint" />
            <mxPoint x="650.35" y="745" as="targetPoint" />
          </mxGeometry>
        </mxCell>
        <mxCell id="tFClhKmgD2rs8W0ACUco-0" value="pertenece" style="rhombus;whiteSpace=wrap;html=1;shadow=0;fontFamily=Helvetica;fontSize=12;align=center;strokeWidth=1;spacing=6;spacingTop=-4;" parent="WIyWlLk6GJQsqaUBKTNV-1" vertex="1">
          <mxGeometry x="500.35" y="605" width="100" height="80" as="geometry" />
        </mxCell>
        <mxCell id="tFClhKmgD2rs8W0ACUco-6" style="edgeStyle=orthogonalEdgeStyle;rounded=0;orthogonalLoop=1;jettySize=auto;html=1;exitX=0.5;exitY=1;exitDx=0;exitDy=0;" parent="WIyWlLk6GJQsqaUBKTNV-1" source="P7yukmsBVSewSL0_P7Qi-132" target="P7yukmsBVSewSL0_P7Qi-132" edge="1">
          <mxGeometry relative="1" as="geometry" />
        </mxCell>
        <mxCell id="tFClhKmgD2rs8W0ACUco-7" value="id_direccion" style="ellipse;whiteSpace=wrap;html=1;" parent="WIyWlLk6GJQsqaUBKTNV-1" vertex="1">
          <mxGeometry x="585" y="1020" width="80" height="50" as="geometry" />
        </mxCell>
        <mxCell id="tFClhKmgD2rs8W0ACUco-8" value="" style="endArrow=none;html=1;rounded=0;entryX=0.913;entryY=1.017;entryDx=0;entryDy=0;entryPerimeter=0;exitX=0.5;exitY=0;exitDx=0;exitDy=0;" parent="WIyWlLk6GJQsqaUBKTNV-1" source="tFClhKmgD2rs8W0ACUco-7" target="P7yukmsBVSewSL0_P7Qi-19" edge="1">
          <mxGeometry width="50" height="50" relative="1" as="geometry">
            <mxPoint x="680" y="1010" as="sourcePoint" />
            <mxPoint x="730" y="960" as="targetPoint" />
          </mxGeometry>
        </mxCell>
        <mxCell id="tFClhKmgD2rs8W0ACUco-9" value="" style="endArrow=none;html=1;rounded=0;entryX=0;entryY=0.5;entryDx=0;entryDy=0;exitX=1;exitY=0.25;exitDx=0;exitDy=0;" parent="WIyWlLk6GJQsqaUBKTNV-1" source="P7yukmsBVSewSL0_P7Qi-30" target="P7yukmsBVSewSL0_P7Qi-479" edge="1">
          <mxGeometry width="50" height="50" relative="1" as="geometry">
            <mxPoint x="1020" y="320" as="sourcePoint" />
            <mxPoint x="1070" y="270" as="targetPoint" />
          </mxGeometry>
        </mxCell>
        <mxCell id="tFClhKmgD2rs8W0ACUco-15" value="" style="endArrow=none;html=1;rounded=0;exitX=0.5;exitY=1;exitDx=0;exitDy=0;strokeWidth=1;entryX=0.5;entryY=0;entryDx=0;entryDy=0;" parent="WIyWlLk6GJQsqaUBKTNV-1" source="P7yukmsBVSewSL0_P7Qi-23" target="P7yukmsBVSewSL0_P7Qi-17" edge="1">
          <mxGeometry width="50" height="50" relative="1" as="geometry">
            <mxPoint x="210" y="860" as="sourcePoint" />
            <mxPoint x="210" y="930" as="targetPoint" />
          </mxGeometry>
        </mxCell>
        <mxCell id="Pl5dN0OMT_UQbBaoHpls-0" value="Direccion_usuario" style="rounded=0;whiteSpace=wrap;html=1;" vertex="1" parent="WIyWlLk6GJQsqaUBKTNV-1">
          <mxGeometry x="768" y="1040" width="120" height="60" as="geometry" />
        </mxCell>
        <mxCell id="Pl5dN0OMT_UQbBaoHpls-1" value="Telefono" style="ellipse;whiteSpace=wrap;html=1;" vertex="1" parent="WIyWlLk6GJQsqaUBKTNV-1">
          <mxGeometry x="378.75" y="1045" width="80" height="50" as="geometry" />
        </mxCell>
        <mxCell id="Pl5dN0OMT_UQbBaoHpls-2" value="Clave" style="ellipse;whiteSpace=wrap;html=1;" vertex="1" parent="WIyWlLk6GJQsqaUBKTNV-1">
          <mxGeometry x="614.35" y="935" width="80" height="50" as="geometry" />
        </mxCell>
        <mxCell id="Pl5dN0OMT_UQbBaoHpls-3" value="Tipo_usuario" style="ellipse;whiteSpace=wrap;html=1;" vertex="1" parent="WIyWlLk6GJQsqaUBKTNV-1">
          <mxGeometry x="504.56" y="1028.35" width="80" height="50" as="geometry" />
        </mxCell>
        <mxCell id="Pl5dN0OMT_UQbBaoHpls-4" value="" style="endArrow=none;html=1;rounded=0;entryX=0.25;entryY=1;entryDx=0;entryDy=0;exitX=1;exitY=0;exitDx=0;exitDy=0;" edge="1" parent="WIyWlLk6GJQsqaUBKTNV-1" source="Pl5dN0OMT_UQbBaoHpls-1">
          <mxGeometry width="50" height="50" relative="1" as="geometry">
            <mxPoint x="453.0626727779177" y="1045.8098936751273" as="sourcePoint" />
            <mxPoint x="504.56" y="1004.78" as="targetPoint" />
          </mxGeometry>
        </mxCell>
        <mxCell id="Pl5dN0OMT_UQbBaoHpls-9" value="" style="endArrow=none;html=1;rounded=0;entryX=1;entryY=0.75;entryDx=0;entryDy=0;exitX=0;exitY=1;exitDx=0;exitDy=0;" edge="1" parent="WIyWlLk6GJQsqaUBKTNV-1" source="Pl5dN0OMT_UQbBaoHpls-2" target="P7yukmsBVSewSL0_P7Qi-19">
          <mxGeometry width="50" height="50" relative="1" as="geometry">
            <mxPoint x="625.440286543022" y="984.9959617942634" as="sourcePoint" />
            <mxPoint x="594.56" y="989.78" as="targetPoint" />
          </mxGeometry>
        </mxCell>
        <mxCell id="Pl5dN0OMT_UQbBaoHpls-6" value="" style="endArrow=none;html=1;rounded=0;entryX=0.33;entryY=1.009;entryDx=0;entryDy=0;exitX=0.376;exitY=0.044;exitDx=0;exitDy=0;entryPerimeter=0;exitPerimeter=0;" edge="1" parent="WIyWlLk6GJQsqaUBKTNV-1" source="Pl5dN0OMT_UQbBaoHpls-3">
          <mxGeometry width="50" height="50" relative="1" as="geometry">
            <mxPoint x="440.56" y="1046.78" as="sourcePoint" />
            <mxPoint x="514.1599999999999" y="1005.3199999999997" as="targetPoint" />
          </mxGeometry>
        </mxCell>
        <mxCell id="Pl5dN0OMT_UQbBaoHpls-12" value="calle" style="ellipse;whiteSpace=wrap;html=1;" vertex="1" parent="WIyWlLk6GJQsqaUBKTNV-1">
          <mxGeometry x="917" y="1065" width="66" height="30" as="geometry" />
        </mxCell>
        <mxCell id="Pl5dN0OMT_UQbBaoHpls-13" value="numero" style="ellipse;whiteSpace=wrap;html=1;" vertex="1" parent="WIyWlLk6GJQsqaUBKTNV-1">
          <mxGeometry x="924" y="1110" width="66" height="30" as="geometry" />
        </mxCell>
        <mxCell id="Pl5dN0OMT_UQbBaoHpls-14" value="comuna" style="ellipse;whiteSpace=wrap;html=1;" vertex="1" parent="WIyWlLk6GJQsqaUBKTNV-1">
          <mxGeometry x="870" y="1130" width="66" height="30" as="geometry" />
        </mxCell>
        <mxCell id="Pl5dN0OMT_UQbBaoHpls-15" value="&lt;u&gt;id_direccion&lt;/u&gt;" style="ellipse;whiteSpace=wrap;html=1;" vertex="1" parent="WIyWlLk6GJQsqaUBKTNV-1">
          <mxGeometry x="790" y="1130" width="76" height="35" as="geometry" />
        </mxCell>
        <mxCell id="Pl5dN0OMT_UQbBaoHpls-17" value="" style="endArrow=none;html=1;rounded=0;exitX=0.5;exitY=0;exitDx=0;exitDy=0;entryX=0.75;entryY=1;entryDx=0;entryDy=0;" edge="1" parent="WIyWlLk6GJQsqaUBKTNV-1" source="Pl5dN0OMT_UQbBaoHpls-15" target="Pl5dN0OMT_UQbBaoHpls-0">
          <mxGeometry width="50" height="50" relative="1" as="geometry">
            <mxPoint x="490" y="860" as="sourcePoint" />
            <mxPoint x="470" y="800" as="targetPoint" />
          </mxGeometry>
        </mxCell>
        <mxCell id="Pl5dN0OMT_UQbBaoHpls-18" value="" style="endArrow=none;html=1;rounded=0;exitX=0;exitY=0;exitDx=0;exitDy=0;entryX=1;entryY=1;entryDx=0;entryDy=0;" edge="1" parent="WIyWlLk6GJQsqaUBKTNV-1" source="Pl5dN0OMT_UQbBaoHpls-14" target="Pl5dN0OMT_UQbBaoHpls-0">
          <mxGeometry width="50" height="50" relative="1" as="geometry">
            <mxPoint x="500" y="870" as="sourcePoint" />
            <mxPoint x="440" y="810" as="targetPoint" />
          </mxGeometry>
        </mxCell>
        <mxCell id="Pl5dN0OMT_UQbBaoHpls-19" value="" style="endArrow=none;html=1;rounded=0;exitX=0;exitY=0.5;exitDx=0;exitDy=0;entryX=1;entryY=0.75;entryDx=0;entryDy=0;" edge="1" parent="WIyWlLk6GJQsqaUBKTNV-1" source="Pl5dN0OMT_UQbBaoHpls-13" target="Pl5dN0OMT_UQbBaoHpls-0">
          <mxGeometry width="50" height="50" relative="1" as="geometry">
            <mxPoint x="653" y="790" as="sourcePoint" />
            <mxPoint x="630" y="770" as="targetPoint" />
          </mxGeometry>
        </mxCell>
        <mxCell id="Pl5dN0OMT_UQbBaoHpls-20" value="" style="endArrow=none;html=1;rounded=0;exitX=0;exitY=0.5;exitDx=0;exitDy=0;entryX=1;entryY=0.5;entryDx=0;entryDy=0;" edge="1" parent="WIyWlLk6GJQsqaUBKTNV-1" source="Pl5dN0OMT_UQbBaoHpls-12" target="Pl5dN0OMT_UQbBaoHpls-0">
          <mxGeometry width="50" height="50" relative="1" as="geometry">
            <mxPoint x="663" y="800" as="sourcePoint" />
            <mxPoint x="640" y="780" as="targetPoint" />
          </mxGeometry>
        </mxCell>
        <mxCell id="Pl5dN0OMT_UQbBaoHpls-21" value="Tiene" style="rhombus;whiteSpace=wrap;html=1;shadow=0;fontFamily=Helvetica;fontSize=12;align=center;strokeWidth=1;spacing=6;spacingTop=-4;" vertex="1" parent="WIyWlLk6GJQsqaUBKTNV-1">
          <mxGeometry x="660" y="985" width="100" height="80" as="geometry" />
        </mxCell>
        <mxCell id="Pl5dN0OMT_UQbBaoHpls-22" value="" style="endArrow=none;html=1;rounded=0;exitX=1;exitY=0.5;exitDx=0;exitDy=0;entryX=0.5;entryY=0;entryDx=0;entryDy=0;strokeWidth=5;" edge="1" parent="WIyWlLk6GJQsqaUBKTNV-1" source="Pl5dN0OMT_UQbBaoHpls-21" target="Pl5dN0OMT_UQbBaoHpls-0">
          <mxGeometry width="50" height="50" relative="1" as="geometry">
            <mxPoint x="670" y="1010" as="sourcePoint" />
            <mxPoint x="590" y="1040" as="targetPoint" />
            <Array as="points" />
          </mxGeometry>
        </mxCell>
        <mxCell id="Pl5dN0OMT_UQbBaoHpls-24" value="" style="endArrow=none;html=1;rounded=0;exitX=0.5;exitY=0;exitDx=0;exitDy=0;entryX=1;entryY=1;entryDx=0;entryDy=0;" edge="1" parent="WIyWlLk6GJQsqaUBKTNV-1" source="Pl5dN0OMT_UQbBaoHpls-21" target="P7yukmsBVSewSL0_P7Qi-19">
          <mxGeometry width="50" height="50" relative="1" as="geometry">
            <mxPoint x="660" y="940" as="sourcePoint" />
            <mxPoint x="600" y="880" as="targetPoint" />
          </mxGeometry>
        </mxCell>
        <mxCell id="Pl5dN0OMT_UQbBaoHpls-25" value="Evaluacion" style="rounded=0;whiteSpace=wrap;html=1;" vertex="1" parent="WIyWlLk6GJQsqaUBKTNV-1">
          <mxGeometry x="690" y="805" width="120" height="60" as="geometry" />
        </mxCell>
        <mxCell id="Pl5dN0OMT_UQbBaoHpls-26" value="&lt;u&gt;id_evaluacion&lt;/u&gt;" style="ellipse;whiteSpace=wrap;html=1;" vertex="1" parent="WIyWlLk6GJQsqaUBKTNV-1">
          <mxGeometry x="770" y="770" width="96" height="30" as="geometry" />
        </mxCell>
        <mxCell id="Pl5dN0OMT_UQbBaoHpls-27" value="id_cliente" style="ellipse;whiteSpace=wrap;html=1;" vertex="1" parent="WIyWlLk6GJQsqaUBKTNV-1">
          <mxGeometry x="860" y="790" width="90" height="30" as="geometry" />
        </mxCell>
        <mxCell id="Pl5dN0OMT_UQbBaoHpls-28" value="id_depachador" style="ellipse;whiteSpace=wrap;html=1;" vertex="1" parent="WIyWlLk6GJQsqaUBKTNV-1">
          <mxGeometry x="827" y="820" width="96" height="30" as="geometry" />
        </mxCell>
        <mxCell id="Pl5dN0OMT_UQbBaoHpls-29" value="calificacion" style="ellipse;whiteSpace=wrap;html=1;" vertex="1" parent="WIyWlLk6GJQsqaUBKTNV-1">
          <mxGeometry x="790" y="880" width="106" height="30" as="geometry" />
        </mxCell>
        <mxCell id="Pl5dN0OMT_UQbBaoHpls-30" value="comentario" style="ellipse;whiteSpace=wrap;html=1;align=center;" vertex="1" parent="WIyWlLk6GJQsqaUBKTNV-1">
          <mxGeometry x="684" y="890" width="106" height="30" as="geometry" />
        </mxCell>
        <mxCell id="Pl5dN0OMT_UQbBaoHpls-32" value="id_pedido" style="ellipse;whiteSpace=wrap;html=1;" vertex="1" parent="WIyWlLk6GJQsqaUBKTNV-1">
          <mxGeometry y="730" width="80" height="50" as="geometry" />
        </mxCell>
        <mxCell id="Pl5dN0OMT_UQbBaoHpls-33" value="estilo" style="ellipse;whiteSpace=wrap;html=1;" vertex="1" parent="WIyWlLk6GJQsqaUBKTNV-1">
          <mxGeometry x="100" y="80" width="80" height="40" as="geometry" />
        </mxCell>
        <mxCell id="Pl5dN0OMT_UQbBaoHpls-35" value="repartomin" style="ellipse;whiteSpace=wrap;html=1;" vertex="1" parent="WIyWlLk6GJQsqaUBKTNV-1">
          <mxGeometry x="-80" y="140" width="80" height="40" as="geometry" />
        </mxCell>
        <mxCell id="Pl5dN0OMT_UQbBaoHpls-36" value="telefono" style="ellipse;whiteSpace=wrap;html=1;" vertex="1" parent="WIyWlLk6GJQsqaUBKTNV-1">
          <mxGeometry x="130" y="20" width="80" height="40" as="geometry" />
        </mxCell>
        <mxCell id="Pl5dN0OMT_UQbBaoHpls-37" value="sucursal" style="ellipse;whiteSpace=wrap;html=1;" vertex="1" parent="WIyWlLk6GJQsqaUBKTNV-1">
          <mxGeometry x="220" y="30" width="80" height="40" as="geometry" />
        </mxCell>
        <mxCell id="Pl5dN0OMT_UQbBaoHpls-38" value="área" style="ellipse;whiteSpace=wrap;html=1;" vertex="1" parent="WIyWlLk6GJQsqaUBKTNV-1">
          <mxGeometry x="230" y="90" width="80" height="40" as="geometry" />
        </mxCell>
        <mxCell id="Pl5dN0OMT_UQbBaoHpls-39" value="" style="endArrow=none;html=1;rounded=0;entryX=0.5;entryY=1;entryDx=0;entryDy=0;exitX=0.25;exitY=0;exitDx=0;exitDy=0;" edge="1" parent="WIyWlLk6GJQsqaUBKTNV-1" source="P7yukmsBVSewSL0_P7Qi-2" target="Pl5dN0OMT_UQbBaoHpls-33">
          <mxGeometry width="50" height="50" relative="1" as="geometry">
            <mxPoint x="130" y="150" as="sourcePoint" />
            <mxPoint x="105" y="101" as="targetPoint" />
          </mxGeometry>
        </mxCell>
        <mxCell id="Pl5dN0OMT_UQbBaoHpls-40" value="" style="endArrow=none;html=1;rounded=0;entryX=0;entryY=0.5;entryDx=0;entryDy=0;exitX=0.75;exitY=0;exitDx=0;exitDy=0;" edge="1" parent="WIyWlLk6GJQsqaUBKTNV-1" source="P7yukmsBVSewSL0_P7Qi-2" target="Pl5dN0OMT_UQbBaoHpls-38">
          <mxGeometry width="50" height="50" relative="1" as="geometry">
            <mxPoint x="160" y="150" as="sourcePoint" />
            <mxPoint x="160" y="120" as="targetPoint" />
          </mxGeometry>
        </mxCell>
        <mxCell id="Pl5dN0OMT_UQbBaoHpls-41" value="" style="endArrow=none;html=1;rounded=0;entryX=0.659;entryY=1.054;entryDx=0;entryDy=0;exitX=0.5;exitY=0;exitDx=0;exitDy=0;entryPerimeter=0;" edge="1" parent="WIyWlLk6GJQsqaUBKTNV-1" source="P7yukmsBVSewSL0_P7Qi-2" target="Pl5dN0OMT_UQbBaoHpls-36">
          <mxGeometry width="50" height="50" relative="1" as="geometry">
            <mxPoint x="160" y="150" as="sourcePoint" />
            <mxPoint x="160" y="120" as="targetPoint" />
          </mxGeometry>
        </mxCell>
        <mxCell id="Pl5dN0OMT_UQbBaoHpls-42" value="" style="endArrow=none;html=1;rounded=0;entryX=0;entryY=1;entryDx=0;entryDy=0;exitX=0.5;exitY=0;exitDx=0;exitDy=0;" edge="1" parent="WIyWlLk6GJQsqaUBKTNV-1" source="P7yukmsBVSewSL0_P7Qi-2" target="Pl5dN0OMT_UQbBaoHpls-37">
          <mxGeometry width="50" height="50" relative="1" as="geometry">
            <mxPoint x="170" y="160" as="sourcePoint" />
            <mxPoint x="170" y="130" as="targetPoint" />
          </mxGeometry>
        </mxCell>
        <mxCell id="Pl5dN0OMT_UQbBaoHpls-43" value="" style="endArrow=none;html=1;rounded=0;exitX=1;exitY=0.5;exitDx=0;exitDy=0;" edge="1" parent="WIyWlLk6GJQsqaUBKTNV-1" source="Pl5dN0OMT_UQbBaoHpls-35">
          <mxGeometry width="50" height="50" relative="1" as="geometry">
            <mxPoint x="20" y="125" as="sourcePoint" />
            <mxPoint x="120" y="165" as="targetPoint" />
          </mxGeometry>
        </mxCell>
        <mxCell id="Pl5dN0OMT_UQbBaoHpls-45" value="Servicio Despacho" style="rounded=0;whiteSpace=wrap;html=1;" vertex="1" parent="WIyWlLk6GJQsqaUBKTNV-1">
          <mxGeometry x="494.35" y="500" width="120" height="60" as="geometry" />
        </mxCell>
        <mxCell id="Pl5dN0OMT_UQbBaoHpls-46" value="Teléfono" style="ellipse;whiteSpace=wrap;html=1;" vertex="1" parent="WIyWlLk6GJQsqaUBKTNV-1">
          <mxGeometry x="320" y="249.62" width="80" height="50" as="geometry" />
        </mxCell>
        <mxCell id="Pl5dN0OMT_UQbBaoHpls-49" value="Tienen" style="rhombus;whiteSpace=wrap;html=1;shadow=0;fontFamily=Helvetica;fontSize=12;align=center;strokeWidth=1;spacing=6;spacingTop=-4;" vertex="1" parent="WIyWlLk6GJQsqaUBKTNV-1">
          <mxGeometry x="504.35" y="382.5" width="100" height="80" as="geometry" />
        </mxCell>
        <mxCell id="Pl5dN0OMT_UQbBaoHpls-50" value="" style="endArrow=none;html=1;rounded=0;exitX=0.5;exitY=0;exitDx=0;exitDy=0;strokeWidth=1;entryX=0.5;entryY=1;entryDx=0;entryDy=0;" edge="1" parent="WIyWlLk6GJQsqaUBKTNV-1" source="P7yukmsBVSewSL0_P7Qi-21" target="tFClhKmgD2rs8W0ACUco-0">
          <mxGeometry width="50" height="50" relative="1" as="geometry">
            <mxPoint x="190" y="580" as="sourcePoint" />
            <mxPoint x="554" y="650" as="targetPoint" />
          </mxGeometry>
        </mxCell>
        <mxCell id="Pl5dN0OMT_UQbBaoHpls-51" value="" style="endArrow=none;html=1;rounded=0;exitX=0.5;exitY=1;exitDx=0;exitDy=0;strokeWidth=1;entryX=0.5;entryY=0;entryDx=0;entryDy=0;" edge="1" parent="WIyWlLk6GJQsqaUBKTNV-1" source="P7yukmsBVSewSL0_P7Qi-18" target="Pl5dN0OMT_UQbBaoHpls-49">
          <mxGeometry width="50" height="50" relative="1" as="geometry">
            <mxPoint x="200" y="590" as="sourcePoint" />
            <mxPoint x="200" y="660" as="targetPoint" />
          </mxGeometry>
        </mxCell>
        <mxCell id="Pl5dN0OMT_UQbBaoHpls-52" value="" style="endArrow=classic;html=1;rounded=0;exitX=0.5;exitY=1;exitDx=0;exitDy=0;entryX=0.5;entryY=0;entryDx=0;entryDy=0;strokeWidth=5;" edge="1" parent="WIyWlLk6GJQsqaUBKTNV-1" source="Pl5dN0OMT_UQbBaoHpls-45" target="tFClhKmgD2rs8W0ACUco-0">
          <mxGeometry width="50" height="50" relative="1" as="geometry">
            <mxPoint x="240" y="800" as="sourcePoint" />
            <mxPoint x="330" y="740" as="targetPoint" />
          </mxGeometry>
        </mxCell>
        <mxCell id="Pl5dN0OMT_UQbBaoHpls-53" value="" style="endArrow=classic;html=1;rounded=0;exitX=0.5;exitY=0;exitDx=0;exitDy=0;entryX=0.5;entryY=1;entryDx=0;entryDy=0;strokeWidth=5;" edge="1" parent="WIyWlLk6GJQsqaUBKTNV-1" source="Pl5dN0OMT_UQbBaoHpls-45" target="Pl5dN0OMT_UQbBaoHpls-49">
          <mxGeometry width="50" height="50" relative="1" as="geometry">
            <mxPoint x="250" y="810" as="sourcePoint" />
            <mxPoint x="340" y="750" as="targetPoint" />
          </mxGeometry>
        </mxCell>
        <mxCell id="Pl5dN0OMT_UQbBaoHpls-55" value="&lt;u&gt;id_servicio&lt;/u&gt;" style="ellipse;whiteSpace=wrap;html=1;" vertex="1" parent="WIyWlLk6GJQsqaUBKTNV-1">
          <mxGeometry x="632" y="515" width="96" height="30" as="geometry" />
        </mxCell>
        <mxCell id="Pl5dN0OMT_UQbBaoHpls-56" value="id_pedido" style="ellipse;whiteSpace=wrap;html=1;" vertex="1" parent="WIyWlLk6GJQsqaUBKTNV-1">
          <mxGeometry x="632" y="545" width="90" height="30" as="geometry" />
        </mxCell>
        <mxCell id="Pl5dN0OMT_UQbBaoHpls-57" value="id_restaurante" style="ellipse;whiteSpace=wrap;html=1;" vertex="1" parent="WIyWlLk6GJQsqaUBKTNV-1">
          <mxGeometry x="620" y="584" width="90" height="30" as="geometry" />
        </mxCell>
        <mxCell id="Pl5dN0OMT_UQbBaoHpls-58" value="id_despachador" style="ellipse;whiteSpace=wrap;html=1;" vertex="1" parent="WIyWlLk6GJQsqaUBKTNV-1">
          <mxGeometry x="620" y="470" width="90" height="30" as="geometry" />
        </mxCell>
        <mxCell id="Pl5dN0OMT_UQbBaoHpls-59" value="tiempo_despacho" style="ellipse;whiteSpace=wrap;html=1;" vertex="1" parent="WIyWlLk6GJQsqaUBKTNV-1">
          <mxGeometry x="370" y="500" width="105" height="30" as="geometry" />
        </mxCell>
        <mxCell id="Pl5dN0OMT_UQbBaoHpls-60" value="precio_despacho" style="ellipse;whiteSpace=wrap;html=1;" vertex="1" parent="WIyWlLk6GJQsqaUBKTNV-1">
          <mxGeometry x="370" y="545" width="97.5" height="30" as="geometry" />
        </mxCell>
        <mxCell id="Pl5dN0OMT_UQbBaoHpls-61" value="id_pedido" style="ellipse;whiteSpace=wrap;html=1;" vertex="1" parent="WIyWlLk6GJQsqaUBKTNV-1">
          <mxGeometry x="590" y="680" width="90" height="30" as="geometry" />
        </mxCell>
        <mxCell id="Pl5dN0OMT_UQbBaoHpls-62" value="id_empresa" style="ellipse;whiteSpace=wrap;html=1;" vertex="1" parent="WIyWlLk6GJQsqaUBKTNV-1">
          <mxGeometry x="529.56" y="780" width="90" height="30" as="geometry" />
        </mxCell>
        <mxCell id="Pl5dN0OMT_UQbBaoHpls-65" value="" style="endArrow=classic;html=1;rounded=0;exitX=0;exitY=0.5;exitDx=0;exitDy=0;entryX=0.5;entryY=0;entryDx=0;entryDy=0;strokeWidth=5;" edge="1" parent="WIyWlLk6GJQsqaUBKTNV-1" source="Pl5dN0OMT_UQbBaoHpls-25" target="P7yukmsBVSewSL0_P7Qi-24">
          <mxGeometry width="50" height="50" relative="1" as="geometry">
            <mxPoint x="240" y="900" as="sourcePoint" />
            <mxPoint x="300" y="900" as="targetPoint" />
          </mxGeometry>
        </mxCell>
        <mxCell id="Pl5dN0OMT_UQbBaoHpls-66" value="" style="endArrow=classic;html=1;rounded=0;exitX=0.5;exitY=0;exitDx=0;exitDy=0;entryX=1;entryY=0.5;entryDx=0;entryDy=0;strokeWidth=5;" edge="1" parent="WIyWlLk6GJQsqaUBKTNV-1" source="Pl5dN0OMT_UQbBaoHpls-25" target="P7yukmsBVSewSL0_P7Qi-53">
          <mxGeometry width="50" height="50" relative="1" as="geometry">
            <mxPoint x="564" y="510" as="sourcePoint" />
            <mxPoint x="564" y="473" as="targetPoint" />
            <Array as="points" />
          </mxGeometry>
        </mxCell>
        <mxCell id="Pl5dN0OMT_UQbBaoHpls-67" value="" style="endArrow=classic;html=1;rounded=0;exitX=0.5;exitY=1;exitDx=0;exitDy=0;strokeWidth=5;" edge="1" parent="WIyWlLk6GJQsqaUBKTNV-1" source="P7yukmsBVSewSL0_P7Qi-30">
          <mxGeometry width="50" height="50" relative="1" as="geometry">
            <mxPoint x="936" y="822" as="sourcePoint" />
            <mxPoint x="460" y="870" as="targetPoint" />
            <Array as="points">
              <mxPoint x="970" y="950" />
              <mxPoint x="690" y="930" />
            </Array>
          </mxGeometry>
        </mxCell>
        <mxCell id="Pl5dN0OMT_UQbBaoHpls-68" value="id_empresa" style="ellipse;whiteSpace=wrap;html=1;" vertex="1" parent="WIyWlLk6GJQsqaUBKTNV-1">
          <mxGeometry x="930" y="155" width="90" height="30" as="geometry" />
        </mxCell>
        <mxCell id="Pl5dN0OMT_UQbBaoHpls-69" value="id_cliente" style="ellipse;whiteSpace=wrap;html=1;" vertex="1" parent="WIyWlLk6GJQsqaUBKTNV-1">
          <mxGeometry x="1000" y="125" width="90" height="30" as="geometry" />
        </mxCell>
        <mxCell id="Pl5dN0OMT_UQbBaoHpls-70" value="fecha_ultimo_pago" style="ellipse;whiteSpace=wrap;html=1;" vertex="1" parent="WIyWlLk6GJQsqaUBKTNV-1">
          <mxGeometry x="1100" y="385" width="120" height="35" as="geometry" />
        </mxCell>
        <mxCell id="Pl5dN0OMT_UQbBaoHpls-71" value="monto_ultimo_pago" style="ellipse;whiteSpace=wrap;html=1;" vertex="1" parent="WIyWlLk6GJQsqaUBKTNV-1">
          <mxGeometry x="1110" y="299.62" width="120" height="35" as="geometry" />
        </mxCell>
        <mxCell id="Pl5dN0OMT_UQbBaoHpls-73" value="" style="endArrow=none;html=1;rounded=0;entryX=0.75;entryY=1;entryDx=0;entryDy=0;exitX=0;exitY=0.5;exitDx=0;exitDy=0;" edge="1" parent="WIyWlLk6GJQsqaUBKTNV-1" source="Pl5dN0OMT_UQbBaoHpls-70" target="P7yukmsBVSewSL0_P7Qi-30">
          <mxGeometry width="50" height="50" relative="1" as="geometry">
            <mxPoint x="1120" y="375" as="sourcePoint" />
            <mxPoint x="1021" y="351" as="targetPoint" />
            <Array as="points" />
          </mxGeometry>
        </mxCell>
        <mxCell id="Pl5dN0OMT_UQbBaoHpls-74" value="" style="endArrow=none;html=1;rounded=0;entryX=0;entryY=0.5;entryDx=0;entryDy=0;exitX=1;exitY=0.5;exitDx=0;exitDy=0;" edge="1" parent="WIyWlLk6GJQsqaUBKTNV-1" source="P7yukmsBVSewSL0_P7Qi-30" target="Pl5dN0OMT_UQbBaoHpls-71">
          <mxGeometry width="50" height="50" relative="1" as="geometry">
            <mxPoint x="1040" y="305" as="sourcePoint" />
            <mxPoint x="1120" y="280" as="targetPoint" />
          </mxGeometry>
        </mxCell>
        <mxCell id="Pl5dN0OMT_UQbBaoHpls-75" value="" style="endArrow=none;html=1;rounded=0;entryX=0.5;entryY=1;entryDx=0;entryDy=0;exitX=0.5;exitY=0;exitDx=0;exitDy=0;" edge="1" parent="WIyWlLk6GJQsqaUBKTNV-1" source="P7yukmsBVSewSL0_P7Qi-30" target="Pl5dN0OMT_UQbBaoHpls-68">
          <mxGeometry width="50" height="50" relative="1" as="geometry">
            <mxPoint x="980" y="290" as="sourcePoint" />
            <mxPoint x="1042" y="233" as="targetPoint" />
          </mxGeometry>
        </mxCell>
        <mxCell id="Pl5dN0OMT_UQbBaoHpls-76" value="" style="endArrow=none;html=1;rounded=0;entryX=0.411;entryY=0.956;entryDx=0;entryDy=0;entryPerimeter=0;" edge="1" parent="WIyWlLk6GJQsqaUBKTNV-1" target="Pl5dN0OMT_UQbBaoHpls-69">
          <mxGeometry width="50" height="50" relative="1" as="geometry">
            <mxPoint x="970" y="270" as="sourcePoint" />
            <mxPoint x="985" y="195" as="targetPoint" />
          </mxGeometry>
        </mxCell>
        <mxCell id="Pl5dN0OMT_UQbBaoHpls-77" value="" style="endArrow=none;html=1;rounded=0;entryX=0.5;entryY=1;entryDx=0;entryDy=0;exitX=0;exitY=0;exitDx=0;exitDy=0;" edge="1" parent="WIyWlLk6GJQsqaUBKTNV-1" source="Pl5dN0OMT_UQbBaoHpls-62" target="P7yukmsBVSewSL0_P7Qi-21">
          <mxGeometry width="50" height="50" relative="1" as="geometry">
            <mxPoint x="634" y="753" as="sourcePoint" />
            <mxPoint x="620" y="755" as="targetPoint" />
          </mxGeometry>
        </mxCell>
        <mxCell id="Pl5dN0OMT_UQbBaoHpls-78" value="" style="endArrow=none;html=1;rounded=0;entryX=0.75;entryY=0;entryDx=0;entryDy=0;exitX=0;exitY=0.5;exitDx=0;exitDy=0;" edge="1" parent="WIyWlLk6GJQsqaUBKTNV-1" source="Pl5dN0OMT_UQbBaoHpls-61" target="P7yukmsBVSewSL0_P7Qi-21">
          <mxGeometry width="50" height="50" relative="1" as="geometry">
            <mxPoint x="644" y="763" as="sourcePoint" />
            <mxPoint x="630" y="765" as="targetPoint" />
          </mxGeometry>
        </mxCell>
        <mxCell id="Pl5dN0OMT_UQbBaoHpls-79" value="" style="endArrow=none;html=1;rounded=0;entryX=1;entryY=0.5;entryDx=0;entryDy=0;exitX=0;exitY=0.5;exitDx=0;exitDy=0;" edge="1" parent="WIyWlLk6GJQsqaUBKTNV-1" source="Pl5dN0OMT_UQbBaoHpls-28" target="Pl5dN0OMT_UQbBaoHpls-25">
          <mxGeometry width="50" height="50" relative="1" as="geometry">
            <mxPoint x="654" y="773" as="sourcePoint" />
            <mxPoint x="640" y="775" as="targetPoint" />
          </mxGeometry>
        </mxCell>
        <mxCell id="Pl5dN0OMT_UQbBaoHpls-80" value="" style="endArrow=none;html=1;rounded=0;entryX=1;entryY=0.25;entryDx=0;entryDy=0;exitX=0;exitY=0.5;exitDx=0;exitDy=0;" edge="1" parent="WIyWlLk6GJQsqaUBKTNV-1" source="Pl5dN0OMT_UQbBaoHpls-27" target="Pl5dN0OMT_UQbBaoHpls-25">
          <mxGeometry width="50" height="50" relative="1" as="geometry">
            <mxPoint x="664" y="783" as="sourcePoint" />
            <mxPoint x="650" y="785" as="targetPoint" />
          </mxGeometry>
        </mxCell>
        <mxCell id="Pl5dN0OMT_UQbBaoHpls-81" value="" style="endArrow=none;html=1;rounded=0;entryX=0.25;entryY=1;entryDx=0;entryDy=0;exitX=0.413;exitY=0.1;exitDx=0;exitDy=0;exitPerimeter=0;" edge="1" parent="WIyWlLk6GJQsqaUBKTNV-1" source="Pl5dN0OMT_UQbBaoHpls-30" target="Pl5dN0OMT_UQbBaoHpls-25">
          <mxGeometry width="50" height="50" relative="1" as="geometry">
            <mxPoint x="674" y="793" as="sourcePoint" />
            <mxPoint x="660" y="795" as="targetPoint" />
          </mxGeometry>
        </mxCell>
        <mxCell id="Pl5dN0OMT_UQbBaoHpls-82" value="" style="endArrow=none;html=1;rounded=0;entryX=0.75;entryY=0;entryDx=0;entryDy=0;exitX=0;exitY=1;exitDx=0;exitDy=0;" edge="1" parent="WIyWlLk6GJQsqaUBKTNV-1" source="Pl5dN0OMT_UQbBaoHpls-26" target="Pl5dN0OMT_UQbBaoHpls-25">
          <mxGeometry width="50" height="50" relative="1" as="geometry">
            <mxPoint x="684" y="803" as="sourcePoint" />
            <mxPoint x="670" y="805" as="targetPoint" />
          </mxGeometry>
        </mxCell>
        <mxCell id="Pl5dN0OMT_UQbBaoHpls-83" value="" style="endArrow=none;html=1;rounded=0;entryX=0;entryY=0;entryDx=0;entryDy=0;exitX=0.75;exitY=1;exitDx=0;exitDy=0;" edge="1" parent="WIyWlLk6GJQsqaUBKTNV-1" source="Pl5dN0OMT_UQbBaoHpls-25" target="Pl5dN0OMT_UQbBaoHpls-29">
          <mxGeometry width="50" height="50" relative="1" as="geometry">
            <mxPoint x="694" y="813" as="sourcePoint" />
            <mxPoint x="680" y="815" as="targetPoint" />
          </mxGeometry>
        </mxCell>
        <mxCell id="Pl5dN0OMT_UQbBaoHpls-84" value="" style="endArrow=none;html=1;rounded=0;entryX=0;entryY=0.5;entryDx=0;entryDy=0;" edge="1" parent="WIyWlLk6GJQsqaUBKTNV-1" target="Pl5dN0OMT_UQbBaoHpls-45">
          <mxGeometry width="50" height="50" relative="1" as="geometry">
            <mxPoint x="474" y="515" as="sourcePoint" />
            <mxPoint x="490" y="520" as="targetPoint" />
          </mxGeometry>
        </mxCell>
        <mxCell id="Pl5dN0OMT_UQbBaoHpls-85" value="" style="endArrow=none;html=1;rounded=0;exitX=1;exitY=0.5;exitDx=0;exitDy=0;entryX=0;entryY=1;entryDx=0;entryDy=0;" edge="1" parent="WIyWlLk6GJQsqaUBKTNV-1" source="Pl5dN0OMT_UQbBaoHpls-60" target="Pl5dN0OMT_UQbBaoHpls-45">
          <mxGeometry width="50" height="50" relative="1" as="geometry">
            <mxPoint x="484" y="535" as="sourcePoint" />
            <mxPoint x="504" y="540" as="targetPoint" />
          </mxGeometry>
        </mxCell>
        <mxCell id="Pl5dN0OMT_UQbBaoHpls-86" value="" style="endArrow=none;html=1;rounded=0;exitX=1;exitY=0.25;exitDx=0;exitDy=0;entryX=0;entryY=1;entryDx=0;entryDy=0;" edge="1" parent="WIyWlLk6GJQsqaUBKTNV-1" source="Pl5dN0OMT_UQbBaoHpls-45" target="Pl5dN0OMT_UQbBaoHpls-58">
          <mxGeometry width="50" height="50" relative="1" as="geometry">
            <mxPoint x="494" y="545" as="sourcePoint" />
            <mxPoint x="514" y="550" as="targetPoint" />
          </mxGeometry>
        </mxCell>
        <mxCell id="Pl5dN0OMT_UQbBaoHpls-87" value="" style="endArrow=none;html=1;rounded=0;entryX=0;entryY=0.5;entryDx=0;entryDy=0;exitX=1;exitY=0.5;exitDx=0;exitDy=0;" edge="1" parent="WIyWlLk6GJQsqaUBKTNV-1" source="Pl5dN0OMT_UQbBaoHpls-45" target="Pl5dN0OMT_UQbBaoHpls-55">
          <mxGeometry width="50" height="50" relative="1" as="geometry">
            <mxPoint x="610" y="539" as="sourcePoint" />
            <mxPoint x="524" y="560" as="targetPoint" />
          </mxGeometry>
        </mxCell>
        <mxCell id="Pl5dN0OMT_UQbBaoHpls-88" value="" style="endArrow=none;html=1;rounded=0;exitX=1;exitY=0.75;exitDx=0;exitDy=0;entryX=0;entryY=0.5;entryDx=0;entryDy=0;" edge="1" parent="WIyWlLk6GJQsqaUBKTNV-1" source="Pl5dN0OMT_UQbBaoHpls-45" target="Pl5dN0OMT_UQbBaoHpls-56">
          <mxGeometry width="50" height="50" relative="1" as="geometry">
            <mxPoint x="514" y="565" as="sourcePoint" />
            <mxPoint x="534" y="570" as="targetPoint" />
          </mxGeometry>
        </mxCell>
        <mxCell id="Pl5dN0OMT_UQbBaoHpls-89" value="" style="endArrow=none;html=1;rounded=0;exitX=0.75;exitY=1;exitDx=0;exitDy=0;entryX=0;entryY=0.5;entryDx=0;entryDy=0;" edge="1" parent="WIyWlLk6GJQsqaUBKTNV-1" source="Pl5dN0OMT_UQbBaoHpls-45" target="Pl5dN0OMT_UQbBaoHpls-57">
          <mxGeometry width="50" height="50" relative="1" as="geometry">
            <mxPoint x="524" y="575" as="sourcePoint" />
            <mxPoint x="544" y="580" as="targetPoint" />
          </mxGeometry>
        </mxCell>
      </root>
    </mxGraphModel>
  </diagram>
</mxfile>
